<svg width="85" height="36" viewBox="0 0 85 36" fill="none" xmlns="http://www.w3.org/2000/svg">
<g clip-path="url(#clip0_30_77)">
<path d="M74.4112 17.0815L74.3741 17.1187C74.6343 16.4125 75.1546 16.1523 75.6006 16.1523C76.2325 16.1523 76.79 16.6355 76.79 17.3417C76.79 17.4904 76.79 17.6762 76.7157 17.8992C75.4148 21.2444 72.6643 22.9541 69.9882 23.2143C68.7617 25.2957 66.7546 26.8196 63.8926 26.8196C59.8041 26.8196 57.9829 23.586 57.9829 20.055C57.9829 15.7063 60.7334 10.8744 65.3422 10.8744C66.3457 10.8744 67.2006 11.0975 67.9068 11.3948C69.9882 12.1753 71.3263 14.8886 71.3263 17.7877C71.3263 18.7169 71.2519 19.6461 71.0289 20.5382C72.4042 20.055 73.705 18.9399 74.4112 17.0815ZM66.6431 13.9222V13.8851C65.8254 13.8851 65.3422 14.9629 65.3422 16.2638C65.3422 18.1594 66.3829 19.9063 68.0183 20.5382C68.2785 19.7205 68.39 18.7913 68.39 17.7134C68.39 15.632 67.7581 13.9222 66.6431 13.9222ZM63.9298 24.1063C64.9705 24.1063 66.0112 23.6603 66.8289 22.7311C64.413 21.6532 62.8891 19.1258 62.8891 16.7098C62.8891 15.8921 63.0378 15.0373 63.2608 14.2939C61.7741 15.5205 60.9192 17.9364 60.9192 20.055C60.9192 22.8054 62.2201 24.1063 63.9298 24.1063Z" fill="black"/>
<path d="M58.5568 17.0815L58.5196 17.1187C58.7798 16.4125 59.2258 16.1152 59.6718 16.1152C60.3037 16.1152 60.9355 16.6727 60.9355 17.3789C60.9355 17.5647 60.8984 17.7134 60.824 17.8992C59.3745 21.4302 57.2187 25.5559 53.7621 27.9718L53.6878 28.7152C53.2789 33.1754 51.0117 36.0001 48.1497 36.0001C45.9939 36.0001 44.7302 34.5134 44.7302 32.7665C44.7302 29.6072 47.9638 28.455 50.9745 26.5223C51.0488 25.7417 51.086 24.8497 51.1231 23.8461C49.6364 25.4815 48.0382 26.1506 46.6258 26.1506C43.801 26.1506 41.4966 23.8461 41.4966 20.3152C41.4966 14.8886 45.0647 11.3205 49.0417 11.3205H49.0789C51.7922 11.3205 54.6913 12.77 54.6913 15.3718C54.6913 16.2267 54.3196 20.8727 54.0223 24.478C56.0293 22.5824 57.7019 19.4975 58.5568 17.0815ZM47.0346 23.4745C48.4099 23.4745 50.2683 22.6196 51.4205 18.4196C51.6063 17.4904 51.7178 16.6727 51.6807 15.7063C51.4577 14.7028 50.6028 14.1081 49.3762 14.1081C46.8488 14.1081 44.4329 16.524 44.4329 20.2037C44.4329 22.4338 45.4736 23.4745 47.0346 23.4745ZM48.447 33.2869H48.4842C49.2647 33.2869 50.1196 32.7665 50.6771 29.4214C49.0417 30.3877 47.5178 31.3541 47.5178 32.5063C47.5178 32.9895 47.8895 33.2869 48.447 33.2869Z" fill="black"/>
<path d="M42.1488 17.0815L42.1117 17.1187C42.3718 16.4125 42.8922 16.1523 43.3382 16.1523C43.9701 16.1523 44.5276 16.6355 44.5276 17.3417C44.5276 17.4904 44.5276 17.6762 44.4533 17.8992C43.1524 21.2444 40.4019 22.9541 37.7258 23.2143C36.4993 25.2957 34.4922 26.8196 31.6302 26.8196C27.5417 26.8196 25.7205 23.586 25.7205 20.055C25.7205 15.7063 28.4709 10.8744 33.0798 10.8744C34.0833 10.8744 34.9382 11.0975 35.6444 11.3948C37.7258 12.1753 39.0639 14.8886 39.0639 17.7877C39.0639 18.7169 38.9895 19.6461 38.7665 20.5382C40.1418 20.055 41.4426 18.9399 42.1488 17.0815ZM34.3807 13.9222V13.8851C33.563 13.8851 33.0798 14.9629 33.0798 16.2638C33.0798 18.1594 34.1205 19.9063 35.7559 20.5382C36.0161 19.7205 36.1276 18.7913 36.1276 17.7134C36.1276 15.632 35.4957 13.9222 34.3807 13.9222ZM31.6674 24.1063C32.7081 24.1063 33.7488 23.6603 34.5665 22.7311C32.1506 21.6532 30.6267 19.1258 30.6267 16.7098C30.6267 15.8921 30.7754 15.0373 30.9984 14.2939C29.5117 15.5205 28.6568 17.9364 28.6568 20.055C28.6568 22.8054 29.9577 24.1063 31.6674 24.1063Z" fill="black"/>
<path d="M27.6095 15.9083C27.0891 15.9083 26.6431 16.1685 26.3457 16.8747C25.3794 19.3278 23.3722 23.4907 21.3279 23.4907C20.0407 23.4907 19.0446 23.1996 18.038 22.9054C17.0101 22.605 15.9713 22.3013 14.6004 22.3013C14.1172 22.3013 13.4482 22.3757 12.8163 22.4872C14.7199 19.8914 15.431 16.7477 16.1201 10.8054C14.8226 10.7228 13.7672 10.4831 12.9979 10.241C12.1763 17.7775 11.2432 20.6511 7.83566 23.4907C7.38964 23.8624 7.16663 24.3828 7.16663 24.9032C7.16663 25.7209 7.87284 26.4271 8.7649 26.4271C9.06225 26.4271 9.39676 26.3156 9.73128 26.1669C11.6269 25.312 12.7791 25.089 14.1915 25.089C15.0897 25.089 16.1645 25.3459 17.3151 25.6208C18.6405 25.9376 20.0666 26.2784 21.4395 26.2784C24.4501 26.2784 26.4201 23.3421 28.613 17.6552C28.7246 17.4694 28.7617 17.2464 28.7617 17.0605C28.7617 16.3543 28.2042 15.9083 27.6095 15.9083Z" fill="black"/>
<path fill-rule="evenodd" clip-rule="evenodd" d="M13.1865 8.70287C13.8596 8.93784 14.9104 9.2114 16.2729 9.29233L16.4959 9.29222C20.696 9.29222 23.4465 6.6904 23.4465 3.56821C23.4465 1.56109 21.8854 0 19.6924 0C16.7561 0 14.7118 2.00712 13.6711 5.98419C12.3701 5.27798 11.4781 4.01424 11.0321 2.41598C10.809 1.63543 10.3259 1.15223 9.65681 1.15223C8.8391 1.15223 8.31873 1.78411 8.31873 2.63899C8.31873 5.16648 10.2887 7.58245 13.1879 8.69752L13.1865 8.70287ZM16.7189 6.57889C17.2764 4.01424 18.1685 2.78767 19.3579 2.78767C19.9898 2.78767 20.3986 3.15936 20.3986 3.8284C20.3986 5.05497 19.0977 6.50455 16.7189 6.57889Z" fill="black"/>
</g>
<defs>
<clipPath id="clip0_30_77">
<rect width="70" height="36" fill="white" transform="translate(7.16663)"/>
</clipPath>
</defs>
</svg>
